<svg width="30" height="30" viewBox="0 0 30 30" fill="none" xmlns="http://www.w3.org/2000/svg">
<path d="M25.8845 0.695069C27.6156 -0.0122162 29.5 1.29121 29.5 3.19684V22.1056C29.5002 22.9748 29.2262 23.821 28.7186 24.5184C28.211 25.2159 27.497 25.7276 26.6824 25.9775L15.3782 29.4432C15.131 29.5189 14.868 29.5189 14.6209 29.4432L3.31765 25.9754C2.50304 25.7255 1.78897 25.2139 1.2814 24.5164C0.773836 23.8189 0.499814 22.9728 0.5 22.1036V3.19684C0.499012 1.29121 2.38239 -0.0122162 4.1145 0.695069L14.9995 5.1449L25.8845 0.695069ZM13.6816 7.50824L3.13573 3.19684V22.1056C3.13573 22.7017 3.51735 23.2251 4.07495 23.3959L13.6816 26.3412V7.50824ZM16.3184 26.3402L25.9241 23.3949C26.4817 23.2241 26.8633 22.6997 26.8633 22.1046V3.19684L16.3184 7.50824V26.3392V26.3402Z" fill="white"/>
</svg>
