<svg width="26" height="24" viewBox="0 0 26 24" fill="none" xmlns="http://www.w3.org/2000/svg">
<path d="M18.9204 2.667C18.5714 2.667 18.2367 2.52651 17.9899 2.27643C17.7432 2.02635 17.6045 1.68717 17.6045 1.3335C17.6045 0.979834 17.7432 0.640653 17.9899 0.390573C18.2367 0.140493 18.5714 0 18.9204 0L24.1841 0C24.9094 0 25.4995 0.597 25.4995 1.333V6.667C25.4995 7.02067 25.3609 7.35985 25.1141 7.60993C24.8673 7.86001 24.5326 8.0005 24.1836 8.0005C23.8346 8.0005 23.4999 7.86001 23.2531 7.60993C23.0063 7.35985 22.8677 7.02067 22.8677 6.667V4.552L15.9037 11.61C15.3906 12.13 14.5567 12.13 14.0426 11.61L9.71051 7.219L2.74658 14.276C2.49978 14.5261 2.16505 14.6666 1.81602 14.6666C1.46699 14.6666 1.13225 14.5261 0.885452 14.276C0.638651 14.0259 0.5 13.6867 0.5 13.333C0.5 12.9793 0.638651 12.6401 0.885452 12.39L8.77995 4.39C9.29309 3.87 10.1269 3.87 10.6411 4.39L14.9732 8.781L21.0075 2.667H18.9204ZM1.81602 22.667C1.81602 21.93 2.40514 21.333 3.13144 21.333H24.1841C24.5331 21.333 24.8678 21.4735 25.1146 21.7236C25.3614 21.9737 25.5 22.3128 25.5 22.6665C25.5 23.0202 25.3614 23.3593 25.1146 23.6094C24.8678 23.8595 24.5331 24 24.1841 24H3.13045C2.78175 23.9997 2.44742 23.8592 2.20094 23.6092C1.95447 23.3593 1.81602 23.0204 1.81602 22.667Z" fill="white"/>
</svg>
