<svg width="28" height="24" viewBox="0 0 28 24" fill="none" xmlns="http://www.w3.org/2000/svg">
<path d="M0.873775 3.66802L0.0134677 14.3341C-0.0312119 14.8855 0.0355611 15.4405 0.209565 15.9639C0.383568 16.4874 0.661018 16.9679 1.02437 17.3752C1.38772 17.7824 1.82908 18.1075 2.32052 18.3299C2.81197 18.5522 3.34282 18.6671 3.87951 18.6671H12.7076V20.2401L7.28097 21.3601C6.94822 21.433 6.65676 21.6383 6.46978 21.9313C6.2828 22.2243 6.21537 22.5815 6.28211 22.9255C6.34886 23.2694 6.54439 23.5724 6.82632 23.7687C7.10826 23.965 7.45387 24.0388 7.78824 23.9741L13.9995 22.6941L20.2118 23.9741C20.3783 24.0084 20.5498 24.0086 20.7164 23.9746C20.883 23.9407 21.0415 23.8732 21.1828 23.7761C21.3241 23.6789 21.4455 23.554 21.54 23.4086C21.6345 23.2631 21.7002 23.0998 21.7335 22.9281C21.7669 22.7564 21.767 22.5796 21.7341 22.4078C21.7011 22.2361 21.6357 22.0727 21.5415 21.927C21.4473 21.7813 21.3261 21.6561 21.185 21.5587C21.0439 21.4613 20.8856 21.3934 20.719 21.3591L15.2924 20.2401V18.6671H24.1205C24.6572 18.6671 25.188 18.5522 25.6795 18.3299C26.1709 18.1075 26.6123 17.7824 26.9756 17.3752C27.339 16.9679 27.6164 16.4874 27.7904 15.9639C27.9644 15.4405 28.0312 14.8855 27.9865 14.3341L27.1243 3.66802C27.0435 2.66811 26.6012 1.73603 25.8851 1.0566C25.169 0.377182 24.2314 4.97944e-05 23.2582 8.04556e-08H4.74079C3.76746 -0.00020108 2.82961 0.376819 2.1133 1.05627C1.39699 1.73571 0.954561 2.66794 0.873775 3.66802ZM24.1205 16.0001H3.87854C3.12202 16.0001 2.52649 15.3331 2.58954 14.5561L3.45179 3.88902C3.4788 3.55575 3.62632 3.24513 3.86509 3.01877C4.10386 2.79241 4.41643 2.66685 4.74079 2.66701H23.2582C23.9314 2.66701 24.491 3.19801 24.5472 3.88902L25.4095 14.5561C25.4244 14.7399 25.4021 14.9249 25.3441 15.0994C25.2861 15.2739 25.1936 15.434 25.0724 15.5698C24.9512 15.7055 24.8041 15.8138 24.6402 15.8879C24.4764 15.962 24.2994 16.0002 24.1205 16.0001Z" fill="white"/>
</svg>
