<svg width="30" height="29" viewBox="0 0 30 29" fill="none" xmlns="http://www.w3.org/2000/svg">
<path d="M12.6674 1.4164C13.6563 -0.472132 16.343 -0.472132 17.3319 1.4164L20.699 7.84497L27.8089 9.08407C29.8994 9.44862 30.7291 12.0214 29.2517 13.5524L24.2223 18.7648L25.2488 25.9593C25.5514 28.0739 23.3778 29.6647 21.4753 28.7214L15.0002 25.5141L8.52308 28.7224C6.6205 29.6647 4.44796 28.0749 4.74956 25.9603L5.777 18.7658L0.747621 13.5544C-0.728757 12.0205 0.100902 9.44862 2.19038 9.08307L9.30033 7.84397L12.6674 1.4154V1.4164ZM18.3673 9.08506L15.0002 2.6555L11.6331 9.08407C11.4447 9.44344 11.1771 9.75451 10.8507 9.99333C10.5243 10.2321 10.1478 10.3924 9.75026 10.4616L2.63932 11.7017L7.66771 16.9141C8.2373 17.5048 8.5033 18.3285 8.38662 19.1433L7.36017 26.3378L13.8353 23.1305C14.1973 22.9512 14.5953 22.8579 14.9987 22.8579C15.4021 22.8579 15.8001 22.9512 16.1621 23.1305L22.6382 26.3378L21.6107 19.1433C21.5533 18.7411 21.5883 18.331 21.7129 17.9445C21.8375 17.558 22.0485 17.2055 22.3296 16.9141L27.359 11.7017L20.2491 10.4626C19.8515 10.3933 19.4751 10.2331 19.1487 9.99432C18.8223 9.7555 18.5546 9.44444 18.3663 9.08506H18.3673Z" fill="white"/>
</svg>
