<svg width="30" height="30" viewBox="0 0 30 30" fill="none" xmlns="http://www.w3.org/2000/svg">
<path d="M29.499 11.0595C29.499 9.98306 29.0824 8.95068 28.3407 8.18951C27.5991 7.42833 26.5932 7.00071 25.5444 7.00071H24.885V4.05908C24.885 3.47457 24.7621 2.89696 24.5245 2.36573C24.2869 1.83451 23.9404 1.36222 23.5086 0.981152C23.0767 0.600088 22.5698 0.319245 22.0225 0.157832C21.4751 -0.00358003 20.9003 -0.0417539 20.3372 0.0459217L3.8614 2.60907C2.9262 2.75469 2.07283 3.23954 1.45611 3.97565C0.839393 4.71176 0.500176 5.65037 0.5 6.62121V25.9412C0.5 27.0176 0.916643 28.05 1.65827 28.8112C2.3999 29.5724 3.40577 30 4.45459 30H25.5454C26.5942 30 27.6001 29.5724 28.3417 28.8112C29.0834 28.05 29.5 27.0176 29.5 25.9412V11.0595H29.499ZM22.2483 4.05908V7.00071H4.45261C3.99091 7.00071 3.54701 7.08188 3.13475 7.23206V6.62121C3.13475 5.95252 3.61127 5.38327 4.25587 5.28383L20.7327 2.7217C20.9203 2.69232 21.1119 2.70489 21.2944 2.75855C21.4768 2.8122 21.6458 2.90567 21.7899 3.03257C21.9339 3.15947 22.0495 3.31679 22.1288 3.49378C22.208 3.67078 22.2492 3.86326 22.2493 4.05806L22.2483 4.05908ZM3.13475 11.0595C3.13475 10.3127 3.72497 9.70692 4.45261 9.70692H25.5444C26.2721 9.70692 26.8623 10.3127 26.8623 11.0595V13.7657H22.2493C21.6377 13.7566 21.0305 13.8722 20.4629 14.1061C19.8953 14.3399 19.3787 14.6872 18.9431 15.1278C18.5075 15.5685 18.1615 16.0936 17.9254 16.6726C17.6893 17.2517 17.5677 17.8731 17.5677 18.5009C17.5677 19.1286 17.6893 19.75 17.9254 20.3291C18.1615 20.9082 18.5075 21.4333 18.9431 21.8739C19.3787 22.3145 19.8953 22.6618 20.4629 22.8956C21.0305 23.1295 21.6377 23.2452 22.2493 23.236H26.8623V25.9422C26.8623 26.689 26.2721 27.2948 25.5444 27.2948H4.45261C4.10309 27.2948 3.76789 27.1523 3.52074 26.8986C3.27359 26.645 3.13475 26.3009 3.13475 25.9422V11.0595ZM26.8623 20.5298H22.2493C21.7248 20.5298 21.2219 20.316 20.8511 19.9354C20.4803 19.5548 20.272 19.0386 20.272 18.5004C20.272 17.9621 20.4803 17.4459 20.8511 17.0653C21.2219 16.6848 21.7248 16.4709 22.2493 16.4709H26.8623V20.5298Z" fill="white"/>
</svg>
